<?xml version="1.0" encoding="UTF-8"?>
<svg xmlns="http://www.w3.org/2000/svg" xmlns:xlink="http://www.w3.org/1999/xlink" width="512" height="512" viewBox="0 0 60 60" version="1.1"><!-- Generator: Sketch 51.3 (57544) - http://www.bohemiancoding.com/sketch --><title>001 - Accessibility</title><desc>Created with Sketch.</desc><defs/><g id="Page-1" stroke="none" stroke-width="1" fill="none" fill-rule="evenodd"><g id="001---Accessibility" fill-rule="nonzero"><path d="M59,30 C59,46.0162577 46.0162577,59 30,59 C29.5,59 29,58.99 28.51,58.96 L28.49,58.96 C13.0867301,58.1501426 1.0126293,45.4245451 1.0126293,30 C1.0126293,14.5754549 13.0867301,1.84985739 28.49,1.04 L28.51,1.04 C29,1.01 29.5,1 30,1 C46.0162577,1 59,13.9837423 59,30 Z" id="Shape" fill="#6A1B9A"/><path d="M56,30 C55.9996482,45.4291761 43.9182463,58.1566188 28.51,58.96 L28.49,58.96 C13.0867301,58.1501426 1.0126293,45.4245451 1.0126293,30 C1.0126293,14.5754549 13.0867301,1.84985739 28.49,1.04 L28.51,1.04 C43.9182463,1.84338124 55.9996482,14.5708239 56,30 Z" id="Shape" fill="#9D27B0"/><circle id="Oval" fill="#00838F" cx="30" cy="30" r="25"/><path d="M50.293,15.413 C31.5831345,16.6886286 16.6886286,31.5831345 15.413,50.293 C7.36962584,44.5150613 3.4966244,34.5328004 5.53829936,24.8419797 C7.57997432,15.151159 15.151159,7.57997432 24.8419797,5.53829936 C34.5328004,3.4966244 44.5150613,7.36962584 50.293,15.413 Z" id="Shape" fill="#00BCD4"/><circle id="Oval" fill="#9D27B0" cx="30" cy="15" r="5"/><path d="M44,23.005 L33.5,23.948 C33.1126667,23.9826667 32.7246667,24 32.336,24 L27.664,24 C27.276,24 26.8886667,23.9826667 26.502,23.948 L16,23.005 C14.8984681,22.9202243 13.9367757,23.7444681 13.852,24.846 C13.7672243,25.9475319 14.5914681,26.9092243 15.693,26.994 L24.181,27.764 C25.2108863,27.8575887 25.99959,28.7208702 26,29.755 L26,32.055 C26.0001566,32.6802996 25.8827858,33.3000579 25.654,33.882 L20.825,46.182 C20.3718504,47.1893674 20.8211327,48.3733503 21.8285,48.8265 C22.8358674,49.2796496 24.0198503,48.8303674 24.473,47.823 L29.092,36.61 C29.2424717,36.2409501 29.6014533,35.9997841 30,36 C30.3970851,36.0000973 30.7548646,36.2398016 30.906,36.607 L35.527,47.82 C35.9801496,48.8273674 37.1641326,49.2766496 38.1715,48.8235 C39.1788674,48.3703504 39.6281496,47.1863674 39.175,46.179 L34.346,33.879 C34.1174603,33.2976838 34.0000939,32.678627 34,32.054 L34,29.754 C34.00041,28.7198702 34.7891137,27.8565887 35.819,27.763 L44.307,26.993 C45.399616,26.8978654 46.2117954,25.9405453 46.1276156,24.8470307 C46.0434358,23.7535161 45.0943033,22.9317835 44,23.005 Z" id="Shape" fill="#9D27B0"/><path d="M30,60 C13.4314575,60 2.02906125e-15,46.5685425 0,30 C-2.02906125e-15,13.4314575 13.4314575,3.04359188e-15 30,0 C46.5685425,-3.04359188e-15 60,13.4314575 60,30 C59.981263,46.5607751 46.5607751,59.981263 30,60 Z M30,2 C14.536027,2 2,14.536027 2,30 C2,45.463973 14.536027,58 30,58 C45.463973,58 58,45.463973 58,30 C57.9823655,14.5433374 45.4566626,2.01763454 30,2 Z" id="Shape" fill="#000000"/><path d="M30,56 C15.6405965,56 4,44.3594035 4,30 C4,15.6405965 15.6405965,4 30,4 C44.3594035,4 56,15.6405965 56,30 C55.983468,44.3525501 44.3525501,55.983468 30,56 Z M30,6 C16.745166,6 6,16.745166 6,30 C6,43.254834 16.745166,54 30,54 C43.254834,54 54,43.254834 54,30 C53.9845705,16.7515624 43.2484376,6.01542952 30,6 Z" id="Shape" fill="#000000"/><path d="M30,21 C26.6862915,21 24,18.3137085 24,15 C24,11.6862915 26.6862915,9 30,9 C33.3137085,9 36,11.6862915 36,15 C35.9966926,18.3123376 33.3123376,20.9966926 30,21 Z M30,11 C27.790861,11 26,12.790861 26,15 C26,17.209139 27.790861,19 30,19 C32.209139,19 34,17.209139 34,15 C34,13.939134 33.5785726,12.9217184 32.8284271,12.1715729 C32.0782816,11.4214274 31.060866,11 30,11 Z" id="Shape" fill="#000000"/><path d="M37.352,50 C36.1705298,50.0001158 35.0990089,49.3067788 34.615,48.229 L29.983,36.988 L25.4,48.2 C24.9775349,49.1978975 24.0497522,49.8904043 22.9729111,50.0116048 C21.89607,50.1328052 20.8375637,49.6638589 20.2038478,48.7848365 C19.5701319,47.9058141 19.4597165,46.7533581 19.915,45.77 L24.727,33.514 C24.9085788,33.0487099 25.001183,32.553464 25,32.054 L25,29.754 C24.999513,29.2369517 24.6049502,28.8055341 24.09,28.759 L15.6,27.99 C13.9481163,27.8602131 12.7142131,26.4158837 12.8440001,24.764 C12.973787,23.1121163 14.4181163,21.8782131 16.07,22.008 L26.588,22.952 C26.9446667,22.984 27.3023333,23 27.661,23 L32.333,23 C32.691,23 33.0486667,22.984 33.406,22.952 L43.906,22.009 L43.922,22.009 C45.5741598,21.8830791 47.015579,23.1203402 47.1415,24.7725 C47.2674209,26.4246598 46.0301598,27.8660791 44.378,27.992 L35.905,28.761 C35.3900498,28.8075341 34.995487,29.2389517 34.995,29.756 L34.995,32.056 C34.9947596,32.5563054 35.0883788,33.0522156 35.271,33.518 L40.1,45.818 C40.4966942,46.7433821 40.4027409,47.8060507 39.8498385,48.6474764 C39.2969361,49.4889021 38.358821,49.9968704 37.352,50 Z M30,35 C30.8041978,34.9972324 31.5296789,35.4826006 31.834,36.227 L36.453,47.439 C36.562499,47.6700043 36.7576014,47.8493264 36.997,47.939 C37.3758592,48.0827444 37.8040142,47.9836487 38.0811917,47.6880656 C38.3583693,47.3924826 38.4297718,46.9588487 38.262,46.59 L33.415,34.247 C33.1403827,33.5484884 32.9996019,32.8045551 33,32.054 L33,29.754 C32.9932331,28.1996736 34.1803843,26.9002889 35.729,26.767 L44.216,26 C44.4831092,25.98313 44.7323088,25.8598907 44.9078456,25.6578542 C45.0833824,25.4558177 45.1706053,25.1918471 45.15,24.925 C45.1323755,24.659828 45.0092988,24.4127561 44.8082523,24.2389541 C44.6072057,24.0651522 44.3449336,23.9790955 44.08,24 L33.587,24.942 C33.171,24.9806667 32.754,25 32.336,25 L27.664,25 C27.246,25 26.829,24.9813333 26.413,24.944 L15.911,24 C15.3587153,23.9610639 14.8794361,24.3772153 14.8405,24.9295 C14.8015639,25.4817847 15.2177153,25.9610639 15.77,26 L24.27,26.771 C25.8178588,26.9037057 27.0051579,28.2014715 27,29.755 L27,32.055 C27.0004871,32.8052389 26.859701,33.548861 26.585,34.247 L21.756,46.547 C21.5794493,46.8712879 21.5959602,47.2664745 21.7989457,47.5749054 C22.0019313,47.8833363 22.3583573,48.0548168 22.7260323,48.020937 C23.0937074,47.9870573 23.4127952,47.7533309 23.556,47.413 L28.162,36.229 C28.4662373,35.4824588 29.1938564,34.9959278 30,35 Z" id="Shape" fill="#000000"/></g></g></svg>
