<svg id="svg" xmlns="http://www.w3.org/2000/svg" xmlns:xlink="http://www.w3.org/1999/xlink" width="400" height="400" viewBox="0, 0, 400,400"><g id="svgg"><path id="path0" d="M127.000 19.031 C 122.528 19.311,117.977 20.958,112.356 24.332 C 106.756 27.692,101.210 29.983,87.500 34.597 C 77.337 38.018,74.316 39.120,69.926 41.011 C 40.707 53.593,36.933 75.480,56.653 118.000 C 67.170 140.676,72.779 149.000,77.542 149.000 C 78.497 149.000,78.713 149.087,79.655 149.855 C 86.896 155.753,93.160 147.443,105.100 116.100 C 109.198 105.343,111.035 97.459,112.392 84.800 C 114.425 65.828,115.694 60.761,120.256 53.412 C 123.419 48.316,135.197 34.270,141.523 28.051 C 143.547 26.061,143.536 26.347,141.667 24.392 C 137.781 20.324,133.186 18.644,127.000 19.031 M295.200 19.027 C 290.921 19.388,286.734 21.564,284.057 24.818 C 283.432 25.578,282.789 26.200,282.628 26.200 C 282.467 26.200,283.321 27.213,284.525 28.450 C 287.162 31.160,291.362 35.819,295.258 40.358 C 308.718 56.034,310.715 60.726,312.901 81.800 C 314.843 100.524,317.113 108.846,325.938 129.600 C 334.399 149.498,340.104 155.183,346.140 149.731 C 346.890 149.053,347.008 149.015,348.466 148.981 C 353.479 148.865,358.697 141.319,369.005 119.285 C 389.869 74.683,385.589 52.792,353.500 39.992 C 349.824 38.526,347.137 37.578,336.800 34.102 C 323.803 29.731,319.261 27.852,313.499 24.461 C 306.057 20.082,300.888 18.546,295.200 19.027 M120.100 128.506 C 100.222 132.187,92.566 155.361,106.582 169.425 C 120.663 183.556,145.143 176.289,148.927 156.855 C 152.105 140.532,136.742 125.423,120.100 128.506 M298.200 128.334 C 277.783 131.566,269.174 154.268,282.822 168.882 C 298.113 185.255,326.084 174.664,326.084 152.500 C 326.084 137.897,312.447 126.078,298.200 128.334 M207.600 158.211 C 189.887 159.414,175.335 165.576,164.178 176.597 C 159.407 181.311,124.157 217.192,123.012 218.500 C 113.099 229.831,113.919 248.221,124.818 258.999 C 134.622 268.694,151.285 269.763,162.368 261.408 C 163.395 260.634,164.293 260.000,164.363 260.000 C 164.433 260.000,168.768 264.260,173.995 269.466 C 179.223 274.673,184.130 279.395,184.899 279.961 C 200.489 291.418,226.060 291.361,241.476 279.835 C 242.890 278.778,246.284 275.553,252.731 269.142 L 261.962 259.962 263.443 261.077 C 278.844 272.669,301.012 266.746,308.076 249.153 C 312.088 239.160,310.279 227.317,303.444 218.831 C 302.274 217.378,261.490 175.879,259.567 174.184 C 246.845 162.973,227.055 156.890,207.600 158.211 M233.576 238.276 C 238.196 250.163,238.205 258.330,233.606 265.638 C 223.901 281.058,198.957 279.924,190.991 263.700 C 187.336 256.255,187.681 247.887,192.088 237.074 L 192.424 236.248 212.607 236.250 L 232.790 236.251 233.576 238.276 M18.602 238.338 C 18.674 273.943,40.800 303.704,72.600 310.970 C 79.248 312.489,89.793 312.903,89.298 311.625 C 88.608 309.849,86.837 301.924,86.209 297.800 C 85.870 295.581,85.711 294.147,85.282 289.450 C 85.178 288.310,85.127 288.200,84.706 288.200 C 80.454 288.200,69.027 283.890,61.552 279.467 C 47.456 271.126,30.402 254.526,19.837 238.862 C 18.736 237.230,18.600 237.172,18.602 238.338 M116.400 265.928 C 116.400 266.365,119.394 272.182,121.018 274.900 C 135.117 298.503,159.863 315.197,188.300 320.290 C 189.840 320.566,191.345 320.836,191.643 320.890 L 192.187 320.987 191.527 319.944 C 189.740 317.120,188.495 312.796,188.208 308.420 C 188.117 307.034,188.070 305.855,188.103 305.799 C 188.136 305.744,188.190 304.903,188.224 303.931 L 188.285 302.164 183.692 300.615 C 169.545 295.842,154.753 288.573,134.200 276.290 C 131.285 274.548,127.424 272.324,125.621 271.348 C 122.840 269.843,118.471 267.213,116.850 266.069 C 116.603 265.894,116.400 265.831,116.400 265.928 M305.300 271.275 C 301.258 273.922,288.256 281.536,281.053 285.474 C 246.946 304.120,223.076 309.534,197.619 304.396 C 194.044 303.675,194.314 303.445,194.471 307.080 C 194.817 315.080,198.219 321.800,201.923 321.800 C 202.167 321.800,202.397 321.888,202.433 321.995 C 202.471 322.107,204.200 322.249,206.475 322.327 L 210.449 322.465 210.328 323.582 C 209.795 328.493,210.021 350.672,210.705 360.600 C 211.103 366.378,212.264 377.513,212.493 377.756 C 212.611 377.882,213.480 370.389,213.890 365.700 C 214.925 353.884,215.355 330.889,214.674 323.783 L 214.548 322.465 218.224 322.334 C 252.975 321.095,281.769 306.451,300.245 280.620 C 302.338 277.693,306.701 270.547,306.355 270.610 C 306.325 270.616,305.850 270.915,305.300 271.275 " stroke="none" fill="#79634c" fill-rule="evenodd"></path><path id="path1" d="M201.800 12.618 C 173.042 13.771,154.236 18.483,142.200 27.551 C 140.769 28.629,132.976 37.251,127.785 43.500 C 116.860 56.652,114.916 61.604,112.793 81.700 C 110.821 100.366,109.089 106.965,101.015 126.585 C 91.790 149.004,86.309 155.032,79.710 150.020 C 78.992 149.475,78.421 149.217,77.737 149.128 L 76.774 149.004 76.884 151.052 C 76.945 152.178,77.044 154.360,77.106 155.900 C 78.220 183.918,85.534 214.980,96.244 237.178 L 97.700 240.195 96.342 242.347 C 85.337 259.797,82.312 283.956,88.234 307.100 C 88.684 308.860,89.179 310.885,89.334 311.600 C 90.468 316.846,97.052 332.476,99.865 336.600 C 104.004 342.668,116.293 349.071,130.400 352.510 C 132.435 353.007,134.316 353.477,134.580 353.556 C 135.008 353.684,135.145 354.023,135.827 356.647 C 138.919 368.545,142.844 375.990,148.000 379.732 C 162.882 390.535,198.851 390.212,211.641 379.162 L 212.782 378.176 214.483 379.552 C 229.156 391.422,269.196 389.929,280.576 377.087 C 284.313 372.869,287.269 366.347,289.700 356.957 C 290.184 355.085,290.608 353.536,290.640 353.517 C 290.673 353.497,292.410 353.060,294.500 352.546 C 308.650 349.065,320.575 342.927,324.895 336.900 C 326.319 334.913,329.825 327.699,332.039 322.200 C 342.577 296.023,342.432 269.532,331.631 247.705 L 330.283 244.981 331.801 241.940 C 342.886 219.748,349.588 187.073,349.598 155.173 L 349.600 149.046 348.250 149.148 C 347.072 149.237,346.771 149.347,345.890 150.018 C 338.915 155.327,333.309 148.510,322.709 121.829 C 316.045 105.058,314.650 99.306,312.706 80.600 C 310.610 60.430,308.213 55.172,293.421 38.300 C 283.422 26.895,282.574 26.161,275.100 22.439 C 260.318 15.077,232.713 11.378,201.800 12.618 M136.358 120.213 C 163.664 123.213,175.990 155.168,157.319 174.555 C 136.450 196.225,98.902 182.111,98.913 152.600 C 98.920 133.042,116.301 118.010,136.358 120.213 M296.358 120.213 C 309.488 121.656,320.581 130.371,324.616 142.415 C 324.962 143.450,325.258 144.625,325.273 145.027 C 325.288 145.430,325.368 145.718,325.450 145.668 C 325.533 145.617,325.614 145.784,325.631 146.038 C 325.681 146.776,325.773 147.442,325.942 148.300 C 326.147 149.338,326.147 155.662,325.942 156.700 C 325.773 157.558,325.681 158.224,325.631 158.962 C 325.614 159.216,325.533 159.383,325.450 159.332 C 325.368 159.282,325.288 159.570,325.273 159.973 C 325.149 163.306,321.227 170.497,317.319 174.555 C 296.406 196.271,258.911 182.112,258.911 152.500 C 258.911 132.801,276.093 117.987,296.358 120.213 M123.650 128.146 C 124.063 128.189,124.738 128.189,125.150 128.146 C 125.563 128.103,125.225 128.067,124.400 128.067 C 123.575 128.067,123.238 128.103,123.650 128.146 M300.152 128.141 C 300.401 128.189,300.761 128.187,300.952 128.137 C 301.144 128.087,300.940 128.048,300.500 128.050 C 300.060 128.053,299.904 128.094,300.152 128.141 M301.650 128.138 C 301.843 128.188,302.157 128.188,302.350 128.138 C 302.543 128.088,302.385 128.046,302.000 128.046 C 301.615 128.046,301.457 128.088,301.650 128.138 M283.291 135.450 L 282.500 136.300 283.350 135.509 C 284.140 134.774,284.292 134.600,284.141 134.600 C 284.108 134.600,283.725 134.983,283.291 135.450 M220.418 158.298 C 236.469 159.848,250.336 165.573,260.318 174.770 C 263.121 177.353,301.740 216.641,303.269 218.465 C 310.960 227.642,312.507 241.110,307.077 251.623 C 298.792 267.666,277.567 272.205,263.177 261.012 L 261.900 260.019 252.300 269.564 C 241.336 280.464,240.142 281.443,234.600 284.063 C 219.906 291.013,199.548 289.833,186.700 281.288 C 183.661 279.266,182.207 277.931,172.922 268.633 L 164.345 260.043 162.563 261.396 C 150.604 270.475,132.613 268.612,123.114 257.311 C 114.126 246.619,113.542 230.838,121.729 219.929 C 122.525 218.868,128.653 212.484,137.548 203.449 C 168.408 172.102,168.214 172.290,173.100 169.084 C 185.914 160.676,203.510 156.665,220.418 158.298 M283.200 169.500 C 283.573 169.885,283.923 170.200,283.978 170.200 C 284.033 170.200,283.773 169.885,283.400 169.500 C 283.027 169.115,282.677 168.800,282.622 168.800 C 282.567 168.800,282.827 169.115,283.200 169.500 M123.650 176.946 C 124.063 176.989,124.738 176.989,125.150 176.946 C 125.563 176.903,125.225 176.867,124.400 176.867 C 123.575 176.867,123.238 176.903,123.650 176.946 M300.250 176.938 C 300.443 176.988,300.757 176.988,300.950 176.938 C 301.143 176.888,300.985 176.846,300.600 176.846 C 300.215 176.846,300.058 176.888,300.250 176.938 M301.650 176.938 C 301.843 176.988,302.157 176.988,302.350 176.938 C 302.543 176.888,302.385 176.846,302.000 176.846 C 301.615 176.846,301.457 176.888,301.650 176.938 M118.100 266.807 C 120.299 268.278,121.845 269.195,125.500 271.195 C 127.370 272.218,131.195 274.424,134.000 276.098 C 202.414 316.926,231.275 316.425,302.093 273.180 C 304.399 271.772,306.323 270.657,306.369 270.702 C 306.500 270.833,304.288 274.666,302.444 277.500 C 285.184 304.037,256.164 320.161,222.000 322.197 C 219.965 322.319,217.490 322.465,216.500 322.524 L 214.700 322.630 214.862 326.465 C 215.068 331.324,214.896 352.631,214.616 357.000 C 214.068 365.540,212.776 378.242,212.484 377.951 C 212.223 377.690,211.022 366.333,210.608 360.200 C 210.029 351.641,209.811 334.452,210.170 325.750 C 210.241 324.017,210.255 322.598,210.200 322.597 C 210.145 322.596,208.312 322.504,206.128 322.394 L 202.155 322.194 201.352 322.919 C 198.988 325.056,196.015 324.772,193.310 322.153 L 192.193 321.071 189.647 320.627 C 161.276 315.677,137.554 300.473,122.712 277.727 C 120.152 273.805,116.200 266.512,116.200 265.713 C 116.200 265.548,116.322 265.618,118.100 266.807 " stroke="none" fill="#f2d0a8" fill-rule="evenodd"></path><path id="path2" d="M191.818 237.815 C 187.673 248.670,187.409 256.576,190.953 263.700 C 199.422 280.724,226.041 280.844,234.565 263.897 C 238.188 256.695,237.863 249.323,233.421 237.876 L 232.791 236.251 212.604 236.250 L 192.417 236.248 191.818 237.815 " stroke="none" fill="#f15c64" fill-rule="evenodd"></path><path id="path3" d="M128.608 120.218 C 101.196 123.764,89.067 155.229,107.667 174.541 C 128.594 196.268,166.085 182.123,166.085 152.500 C 166.085 132.864,148.428 117.654,128.608 120.218 M288.468 120.219 C 261.241 123.392,249.055 155.217,267.667 174.541 C 285.700 193.263,318.527 185.498,325.102 160.956 C 325.722 158.640,325.734 158.037,325.122 159.900 C 319.652 176.559,298.539 182.374,284.924 170.973 C 273.347 161.279,273.347 143.670,284.924 134.021 C 298.586 122.634,319.651 128.440,325.122 145.100 C 325.734 146.963,325.722 146.360,325.102 144.044 C 320.967 128.612,305.084 118.282,288.468 120.219 M128.534 128.403 C 148.230 131.596,156.279 155.314,142.435 169.368 C 130.312 181.675,109.491 178.438,101.814 163.053 C 93.018 145.426,108.633 125.178,128.534 128.403 M188.331 303.234 C 186.930 314.904,193.642 326.971,199.845 323.936 C 201.073 323.335,202.430 322.062,201.983 321.928 C 197.266 320.523,194.400 314.664,194.400 306.424 L 194.400 303.700 191.750 303.018 C 190.292 302.642,188.956 302.298,188.780 302.252 C 188.526 302.186,188.433 302.391,188.331 303.234 " stroke="none" fill="#fbfbfb" fill-rule="evenodd"></path><path id="path4" d="M285.200 29.263 C 285.200 29.297,285.493 29.590,285.850 29.913 L 286.500 30.500 285.913 29.850 C 285.365 29.244,285.200 29.108,285.200 29.263 M106.393 135.550 L 105.300 136.700 106.450 135.607 C 107.518 134.591,107.692 134.400,107.543 134.400 C 107.512 134.400,106.994 134.917,106.393 135.550 M88.687 149.250 L 88.100 149.900 88.750 149.313 C 89.356 148.765,89.492 148.600,89.337 148.600 C 89.303 148.600,89.010 148.893,88.687 149.250 M77.999 149.148 C 78.384 149.195,78.834 149.338,78.999 149.466 C 79.261 149.670,79.265 149.655,79.026 149.350 C 78.843 149.117,78.508 149.011,78.026 149.032 L 77.300 149.064 77.999 149.148 M346.574 149.350 C 346.334 149.656,346.338 149.670,346.606 149.462 C 346.774 149.331,347.404 149.190,348.006 149.149 L 349.100 149.074 347.974 149.037 C 347.110 149.009,346.785 149.081,346.574 149.350 M276.246 151.200 C 276.246 151.585,276.288 151.743,276.338 151.550 C 276.388 151.358,276.388 151.042,276.338 150.850 C 276.288 150.657,276.246 150.815,276.246 151.200 M276.246 153.800 C 276.246 154.185,276.288 154.343,276.338 154.150 C 276.388 153.958,276.388 153.643,276.338 153.450 C 276.288 153.258,276.246 153.415,276.246 153.800 M208.146 158.144 C 208.501 158.189,209.131 158.189,209.546 158.146 C 209.960 158.103,209.670 158.067,208.900 158.066 C 208.130 158.065,207.790 158.100,208.146 158.144 M216.146 158.144 C 216.501 158.189,217.131 158.189,217.546 158.146 C 217.960 158.103,217.670 158.067,216.900 158.066 C 216.130 158.065,215.790 158.100,216.146 158.144 M205.552 158.341 C 205.801 158.389,206.161 158.387,206.352 158.337 C 206.544 158.287,206.340 158.248,205.900 158.250 C 205.460 158.253,205.304 158.294,205.552 158.341 M219.552 158.341 C 219.801 158.389,220.161 158.387,220.352 158.337 C 220.544 158.287,220.340 158.248,219.900 158.250 C 219.460 158.253,219.304 158.294,219.552 158.341 M221.650 158.538 C 221.843 158.588,222.157 158.588,222.350 158.538 C 222.543 158.488,222.385 158.446,222.000 158.446 C 221.615 158.446,221.457 158.488,221.650 158.538 M179.350 165.413 C 178.718 165.739,178.200 166.051,178.200 166.106 C 178.200 166.195,180.580 165.062,180.783 164.876 C 181.045 164.637,180.349 164.897,179.350 165.413 M245.617 165.076 C 245.820 165.263,248.200 166.395,248.200 166.306 C 248.200 166.194,245.889 165.000,245.672 165.000 C 245.596 165.000,245.571 165.034,245.617 165.076 M106.500 169.600 C 107.042 170.150,107.530 170.600,107.585 170.600 C 107.640 170.600,107.242 170.150,106.700 169.600 C 106.158 169.050,105.670 168.600,105.615 168.600 C 105.560 168.600,105.958 169.050,106.500 169.600 M166.789 173.950 L 166.100 174.700 166.850 174.011 C 167.263 173.632,167.600 173.294,167.600 173.261 C 167.600 173.108,167.431 173.252,166.789 173.950 M258.600 173.263 C 258.600 173.297,258.893 173.590,259.250 173.913 L 259.900 174.500 259.313 173.850 C 258.765 173.244,258.600 173.108,258.600 173.263 M263.100 177.600 C 264.637 179.140,265.940 180.400,265.995 180.400 C 266.050 180.400,264.837 179.140,263.300 177.600 C 261.763 176.060,260.460 174.800,260.405 174.800 C 260.350 174.800,261.563 176.060,263.100 177.600 M164.789 175.750 L 164.100 176.500 164.850 175.811 C 165.548 175.169,165.692 175.000,165.539 175.000 C 165.506 175.000,165.168 175.338,164.789 175.750 M156.098 184.650 L 151.300 189.500 156.150 184.702 C 160.657 180.243,161.090 179.800,160.948 179.800 C 160.920 179.800,158.738 181.983,156.098 184.650 M273.600 188.300 C 276.403 191.105,278.742 193.400,278.797 193.400 C 278.852 193.400,276.603 191.105,273.800 188.300 C 270.997 185.495,268.658 183.200,268.603 183.200 C 268.548 183.200,270.797 185.495,273.600 188.300 M143.298 197.650 L 138.500 202.500 143.350 197.702 C 147.857 193.243,148.290 192.800,148.148 192.800 C 148.120 192.800,145.938 194.983,143.298 197.650 M286.400 201.300 C 289.203 204.105,291.542 206.400,291.597 206.400 C 291.652 206.400,289.403 204.105,286.600 201.300 C 283.797 198.495,281.458 196.200,281.403 196.200 C 281.348 196.200,283.597 198.495,286.400 201.300 M130.298 210.850 L 125.300 215.900 130.350 210.902 C 135.043 206.257,135.490 205.800,135.348 205.800 C 135.320 205.800,133.048 208.072,130.298 210.850 M298.100 213.200 C 300.298 215.400,302.141 217.200,302.196 217.200 C 302.251 217.200,300.498 215.400,298.300 213.200 C 296.102 211.000,294.259 209.200,294.204 209.200 C 294.149 209.200,295.902 211.000,298.100 213.200 M123.087 218.250 L 122.500 218.900 123.150 218.313 C 123.508 217.990,123.800 217.697,123.800 217.663 C 123.800 217.508,123.635 217.644,123.087 218.250 M116.046 234.800 C 116.046 235.185,116.088 235.343,116.138 235.150 C 116.188 234.957,116.188 234.643,116.138 234.450 C 116.088 234.257,116.046 234.415,116.046 234.800 M310.270 238.000 C 310.270 238.935,310.304 239.318,310.346 238.850 C 310.389 238.382,310.389 237.618,310.346 237.150 C 310.304 236.683,310.270 237.065,310.270 238.000 M116.050 240.300 C 116.053 240.740,116.094 240.896,116.141 240.648 C 116.189 240.399,116.187 240.039,116.137 239.848 C 116.087 239.656,116.048 239.860,116.050 240.300 M301.793 258.750 L 300.700 259.900 301.850 258.807 C 302.918 257.791,303.092 257.600,302.943 257.600 C 302.912 257.600,302.394 258.118,301.793 258.750 M125.400 259.663 C 125.400 259.697,125.692 259.990,126.050 260.313 L 126.700 260.900 126.113 260.250 C 125.565 259.644,125.400 259.508,125.400 259.663 M173.300 269.000 C 178.249 273.950,182.343 278.000,182.398 278.000 C 182.453 278.000,178.449 273.950,173.500 269.000 C 168.551 264.050,164.457 260.000,164.402 260.000 C 164.347 260.000,168.351 264.050,173.300 269.000 M142.950 267.145 C 143.308 267.189,143.893 267.189,144.250 267.145 C 144.608 267.100,144.315 267.064,143.600 267.064 C 142.885 267.064,142.593 267.100,142.950 267.145 M145.750 267.145 C 146.108 267.189,146.692 267.189,147.050 267.145 C 147.407 267.100,147.115 267.064,146.400 267.064 C 145.685 267.064,145.393 267.100,145.750 267.145 M279.150 267.145 C 279.507 267.189,280.093 267.189,280.450 267.145 C 280.808 267.100,280.515 267.064,279.800 267.064 C 279.085 267.064,278.793 267.100,279.150 267.145 M281.950 267.145 C 282.308 267.189,282.893 267.189,283.250 267.145 C 283.608 267.100,283.315 267.064,282.600 267.064 C 281.885 267.064,281.593 267.100,281.950 267.145 M243.887 277.850 L 243.300 278.500 243.950 277.913 C 244.556 277.365,244.692 277.200,244.537 277.200 C 244.503 277.200,244.210 277.493,243.887 277.850 M209.853 288.544 C 210.157 288.589,210.607 288.588,210.853 288.541 C 211.099 288.493,210.850 288.456,210.300 288.457 C 209.750 288.459,209.549 288.498,209.853 288.544 M215.453 288.544 C 215.757 288.589,216.207 288.588,216.453 288.541 C 216.699 288.493,216.450 288.456,215.900 288.457 C 215.350 288.459,215.149 288.498,215.453 288.544 M85.454 291.200 C 85.454 291.695,85.493 291.897,85.541 291.650 C 85.589 291.403,85.589 290.998,85.541 290.750 C 85.493 290.502,85.454 290.705,85.454 291.200 M133.500 291.400 C 134.042 291.950,134.530 292.400,134.585 292.400 C 134.640 292.400,134.242 291.950,133.700 291.400 C 133.158 290.850,132.670 290.400,132.615 290.400 C 132.560 290.400,132.958 290.850,133.500 291.400 M291.400 291.300 C 290.914 291.795,290.562 292.200,290.617 292.200 C 290.672 292.200,291.114 291.795,291.600 291.300 C 292.086 290.805,292.438 290.400,292.383 290.400 C 292.328 290.400,291.886 290.805,291.400 291.300 M85.646 293.400 C 85.646 293.785,85.688 293.943,85.738 293.750 C 85.788 293.558,85.788 293.243,85.738 293.050 C 85.688 292.858,85.646 293.015,85.646 293.400 M136.400 294.300 C 136.997 294.905,137.531 295.400,137.586 295.400 C 137.641 295.400,137.197 294.905,136.600 294.300 C 136.003 293.695,135.469 293.200,135.414 293.200 C 135.359 293.200,135.803 293.695,136.400 294.300 M287.891 294.850 L 287.100 295.700 287.950 294.909 C 288.740 294.174,288.892 294.000,288.741 294.000 C 288.708 294.000,288.325 294.382,287.891 294.850 M85.846 295.200 C 85.846 295.585,85.888 295.743,85.938 295.550 C 85.988 295.358,85.988 295.043,85.938 294.850 C 85.888 294.657,85.846 294.815,85.846 295.200 M210.550 306.141 C 210.798 306.189,211.203 306.189,211.450 306.141 C 211.697 306.093,211.495 306.054,211.000 306.054 C 210.505 306.054,210.303 306.093,210.550 306.141 M219.750 306.141 C 219.998 306.189,220.403 306.189,220.650 306.141 C 220.898 306.093,220.695 306.054,220.200 306.054 C 219.705 306.054,219.503 306.093,219.750 306.141 M204.352 322.341 C 204.601 322.389,204.961 322.387,205.152 322.337 C 205.344 322.287,205.140 322.248,204.700 322.250 C 204.260 322.253,204.104 322.294,204.352 322.341 M219.952 322.341 C 220.201 322.389,220.561 322.387,220.752 322.337 C 220.944 322.287,220.740 322.248,220.300 322.250 C 219.860 322.253,219.704 322.294,219.952 322.341 M209.053 322.544 C 209.357 322.589,209.807 322.588,210.053 322.541 C 210.299 322.493,210.050 322.456,209.500 322.457 C 208.950 322.459,208.749 322.498,209.053 322.544 M215.053 322.544 C 215.357 322.589,215.807 322.588,216.053 322.541 C 216.299 322.493,216.050 322.456,215.500 322.457 C 214.950 322.459,214.749 322.498,215.053 322.544 M210.246 323.400 C 210.246 323.785,210.288 323.943,210.338 323.750 C 210.388 323.558,210.388 323.243,210.338 323.050 C 210.288 322.858,210.246 323.015,210.246 323.400 M214.650 323.500 C 214.653 323.940,214.694 324.096,214.741 323.848 C 214.789 323.599,214.787 323.239,214.737 323.048 C 214.687 322.856,214.648 323.060,214.650 323.500 M210.066 329.300 C 210.067 330.070,210.103 330.360,210.146 329.946 C 210.189 329.531,210.189 328.901,210.144 328.546 C 210.100 328.190,210.065 328.530,210.066 329.300 M214.867 329.400 C 214.867 330.225,214.903 330.563,214.946 330.150 C 214.989 329.738,214.989 329.063,214.946 328.650 C 214.903 328.238,214.867 328.575,214.867 329.400 M210.067 348.200 C 210.067 349.025,210.103 349.363,210.146 348.950 C 210.189 348.538,210.189 347.863,210.146 347.450 C 210.103 347.038,210.067 347.375,210.067 348.200 M214.867 348.200 C 214.867 349.025,214.903 349.363,214.946 348.950 C 214.989 348.538,214.989 347.863,214.946 347.450 C 214.903 347.038,214.867 347.375,214.867 348.200 M210.250 354.100 C 210.253 354.540,210.294 354.696,210.341 354.448 C 210.389 354.199,210.387 353.839,210.337 353.648 C 210.287 353.456,210.248 353.660,210.250 354.100 M214.650 354.100 C 214.653 354.540,214.694 354.696,214.741 354.448 C 214.789 354.199,214.787 353.839,214.737 353.648 C 214.687 353.456,214.648 353.660,214.650 354.100 M210.446 358.000 C 210.446 358.385,210.488 358.543,210.538 358.350 C 210.588 358.158,210.588 357.843,210.538 357.650 C 210.488 357.457,210.446 357.615,210.446 358.000 M214.446 358.000 C 214.446 358.385,214.488 358.543,214.538 358.350 C 214.588 358.158,214.588 357.843,214.538 357.650 C 214.488 357.457,214.446 357.615,214.446 358.000 " stroke="none" fill="#ae947a" fill-rule="evenodd"></path></g></svg>