<svg id="Layer_1" enable-background="new 0 0 256 256" height="512" viewBox="0 0 256 256" width="512" xmlns="http://www.w3.org/2000/svg"><path d="m113.029 233c-57.913 0-105.029-47.102-105.029-105s47.116-105 105.029-105 105.029 47.103 105.029 105-47.117 105-105.029 105z" fill="#a4c9ff"/><g fill="#e0ebfc"><path d="m113.029 232.48c-57.627 0-104.51-46.87-104.51-104.48 0-57.611 46.883-104.481 104.51-104.481 57.626 0 104.509 46.87 104.509 104.481 0 57.61-46.883 104.48-104.509 104.48zm0-202.961c-54.319 0-98.51 44.179-98.51 98.481s44.191 98.48 98.51 98.48c54.318 0 98.509-44.178 98.509-98.48s-44.191-98.481-98.509-98.481z"/><path d="m113.029 89.95c-28.115 0-54.511-11.048-74.327-31.107-1.154-1.169-1.154-3.048 0-4.217 19.816-20.06 46.212-31.107 74.327-31.107s54.511 11.048 74.327 31.107c1.155 1.169 1.155 3.048 0 4.217-19.816 20.059-46.212 31.107-74.327 31.107zm-67.914-33.216c18.419 17.576 42.417 27.216 67.914 27.216s49.495-9.641 67.914-27.216c-18.419-17.575-42.417-27.216-67.914-27.216-25.497.001-49.495 9.641-67.914 27.216z"/><path d="m113.029 232.48c-57.627 0-104.51-46.87-104.51-104.48 0-57.611 46.883-104.481 104.51-104.481 57.626 0 104.509 46.87 104.509 104.481 0 57.61-46.883 104.48-104.509 104.48zm0-202.961c-54.319 0-98.51 44.179-98.51 98.481s44.191 98.48 98.51 98.48c54.318 0 98.509-44.178 98.509-98.48s-44.191-98.481-98.509-98.481z"/><path d="m113.029 232.48c-28.114 0-54.511-11.047-74.327-31.106-1.154-1.169-1.154-3.048 0-4.217 19.816-20.06 46.212-31.107 74.327-31.107s54.511 11.048 74.327 31.107c1.155 1.169 1.155 3.048 0 4.217-19.817 20.06-46.213 31.106-74.327 31.106zm-67.914-33.214c18.419 17.574 42.417 27.215 67.914 27.215s49.495-9.641 67.914-27.215c-18.419-17.575-42.417-27.216-67.914-27.216s-49.495 9.64-67.914 27.216z"/><path d="m113.029 232.48c-16.403 0-31.689-11.099-43.043-31.25-11.048-19.609-17.133-45.616-17.133-73.23s6.084-53.621 17.132-73.23c11.354-20.152 26.641-31.251 43.043-31.251s31.689 11.099 43.042 31.251c11.048 19.609 17.133 45.616 17.133 73.23 0 27.613-6.085 53.621-17.133 73.23-11.352 20.152-26.638 31.25-43.041 31.25zm0-202.961c-29.873 0-54.176 44.179-54.176 98.481s24.303 98.48 54.176 98.48 54.175-44.178 54.175-98.48-24.303-98.481-54.175-98.481z"/><path d="m215.712 131h-205.366c-1.657 0-3-1.343-3-3s1.343-3 3-3h205.366c1.657 0 3 1.343 3 3s-1.343 3-3 3z"/></g><path d="m113.029 235c-59.016 0-107.029-48-107.029-107s48.013-107 107.029-107 107.029 48 107.029 107-48.013 107-107.029 107zm0-210c-56.81 0-103.029 46.206-103.029 103s46.219 103 103.029 103 103.029-46.206 103.029-103-46.219-103-103.029-103z" fill="#3762cc"/><path d="m240 160.04h-104c-4.418 0-8-3.582-8-8v-42c0-4.418 3.582-8 8-8h104c4.418 0 8 3.582 8 8v42c0 4.419-3.582 8-8 8z" fill="#f9a7a7"/><path d="m177.695 115.7c-.753-.717-1.679-1.08-2.749-1.08-1.076 0-1.935.308-2.55.913-.54.529-.926 1.144-1.149 1.823-.187.569-.377 1.322-.579 2.289l-3.131 13.954-3.48-12.849c-.386-1.418-.689-2.417-.927-3.056-.28-.753-.777-1.447-1.479-2.063-.764-.672-1.806-1.012-3.097-1.012-1.264 0-2.299.322-3.077.956-.731.596-1.269 1.316-1.595 2.143-.283.716-.59 1.711-.935 3.036l-3.442 12.824-3.123-13.923c-.315-1.486-.683-2.605-1.123-3.424-.396-.735-1.267-1.612-3.159-1.612-1.089 0-2.021.369-2.768 1.099-.756.737-1.139 1.653-1.139 2.724 0 .718.161 1.694.489 2.979l5.103 20.639c.154.62.33 1.291.527 2.017.218.799.505 1.507.855 2.104.395.673.921 1.201 1.564 1.572.646.373 1.451.563 2.393.563 1.186 0 2.168-.321 2.922-.955.702-.591 1.204-1.278 1.493-2.041.241-.635.555-1.645.961-3.093l4.047-14.822 3.999 14.829c.415 1.477.731 2.499.967 3.123.284.755.785 1.434 1.489 2.018.754.625 1.735.941 2.918.941 1.25 0 2.257-.33 2.994-.983.676-.599 1.163-1.311 1.45-2.117.244-.687.536-1.718.896-3.157l5.103-20.64c.328-1.344.488-2.317.488-2.976.002-1.09-.388-2.013-1.156-2.743z" fill="#ffea92"/><path d="m207.942 117.338c-.366-.782-.95-1.36-1.734-1.718-.692-.317-1.561-.478-2.579-.478h-16.392c-1.241 0-2.21.31-2.881.92-.685.626-1.046 1.478-1.046 2.463 0 1.001.362 1.86 1.047 2.484.669.611 1.638.921 2.88.921h12.987v5.526h-11.879c-1.2 0-2.141.302-2.795.898-.673.611-1.028 1.449-1.028 2.422 0 .965.346 1.804 1 2.427.649.621 1.6.937 2.823.937h11.879v6.718h-13.468c-1.228 0-2.196.316-2.881.942-.698.639-1.067 1.519-1.067 2.546 0 1.001.369 1.867 1.067 2.504.683.625 1.652.942 2.881.942h16.872c1.623 0 2.844-.402 3.628-1.196.781-.79 1.177-2.004 1.177-3.609v-23.04c.001-1.051-.16-1.904-.491-2.609z" fill="#6bdddd"/><path d="m240.825 134.474c-.721-.702-1.596-1.058-2.601-1.058-1.188 0-2.087.388-2.675 1.153-.457.596-.841 1.36-1.129 2.241-.554 1.515-1.373 2.669-2.435 3.431-1.068.768-2.358 1.141-3.943 1.141-1.443 0-2.713-.342-3.771-1.015-1.046-.665-1.873-1.705-2.459-3.09-.613-1.451-.925-3.321-.925-5.559 0-3.324.692-5.896 2.057-7.644 1.324-1.696 3.06-2.521 5.307-2.521 1.388 0 2.559.32 3.479.952.956.658 1.81 1.686 2.537 3.053.543 1.025 1.041 1.745 1.523 2.203.588.556 1.421.838 2.476.838.984 0 1.868-.394 2.555-1.138.675-.731 1.017-1.593 1.017-2.56 0-1.501-.582-3.084-1.73-4.707-1.121-1.582-2.741-2.922-4.814-3.981-2.069-1.058-4.452-1.594-7.083-1.594-2.153 0-4.214.39-6.124 1.159-1.921.774-3.62 1.919-5.05 3.4-1.43 1.482-2.541 3.285-3.303 5.356-.755 2.053-1.138 4.398-1.138 6.974 0 1.583.151 3.103.45 4.513.3 1.423.758 2.782 1.362 4.041.604 1.261 1.346 2.419 2.212 3.449.973 1.137 2.058 2.068 3.226 2.769 1.165.699 2.476 1.22 3.895 1.549 1.392.322 2.952.485 4.637.485 2.257 0 4.273-.371 5.995-1.104 1.724-.734 3.166-1.71 4.287-2.9 1.109-1.176 1.938-2.401 2.462-3.64.531-1.254.801-2.451.801-3.559-.001-1.042-.37-1.93-1.098-2.637z" fill="#ffea92"/><path d="m240 162.04h-104c-5.514 0-10-4.486-10-10v-42c0-5.514 4.486-10 10-10h104c5.514 0 10 4.486 10 10v42c0 5.514-4.486 10-10 10zm-104-58c-3.309 0-6 2.691-6 6v42c0 3.309 2.691 6 6 6h104c3.309 0 6-2.691 6-6v-42c0-3.309-2.691-6-6-6z" fill="#3762cc"/><path d="m167.922 150.315c-1.661 0-3.072-.472-4.194-1.401-.976-.81-1.677-1.769-2.085-2.853-.259-.687-.583-1.731-1.021-3.287l-2.085-7.733-2.105 7.712c-.433 1.542-.756 2.579-1.021 3.276-.411 1.086-1.109 2.049-2.074 2.861-1.125.945-2.541 1.425-4.21 1.425-1.298 0-2.439-.279-3.394-.831-.946-.546-1.717-1.317-2.289-2.292-.438-.747-.795-1.619-1.06-2.59-.201-.742-.381-1.427-.538-2.06l-5.104-20.642c-.373-1.458-.548-2.562-.548-3.459 0-1.606.603-3.044 1.742-4.155 1.116-1.09 2.557-1.667 4.164-1.667 3.031 0 4.384 1.669 4.92 2.663.532.989.964 2.284 1.318 3.958l1.341 5.976 1.337-4.98c.361-1.389.691-2.458 1.007-3.253.452-1.146 1.189-2.143 2.191-2.958 1.145-.933 2.605-1.405 4.34-1.405 1.792 0 3.278.508 4.418 1.51.95.836 1.635 1.801 2.031 2.868.262.703.583 1.759.982 3.228l1.368 5.052 1.362-6.069c.212-1.015.42-1.833.63-2.475.326-.991.881-1.875 1.649-2.629.986-.97 2.354-1.484 3.95-1.484 1.579 0 3.006.563 4.127 1.63 1.164 1.106 1.779 2.557 1.779 4.192 0 .83-.173 1.927-.545 3.45l-5.104 20.646c-.383 1.531-.685 2.594-.952 3.347-.402 1.13-1.078 2.12-2.009 2.944-1.111.985-2.564 1.485-4.318 1.485zm-9.373-24.911h.003c.903.001 1.693.607 1.928 1.479l3.999 14.829c.389 1.382.696 2.377.907 2.938.161.427.462.825.895 1.185.391.323.928.48 1.642.48.747 0 1.308-.161 1.668-.48.425-.377.717-.799.893-1.291.22-.619.494-1.591.839-2.971l5.102-20.636c.354-1.453.43-2.16.43-2.495 0-.542-.165-.94-.535-1.292 0-.001-.001-.001-.001-.002-.379-.36-.814-.528-1.37-.528-.533 0-.919.114-1.146.339-.311.304-.529.647-.653 1.022-.16.49-.336 1.188-.521 2.073l-3.138 13.982c-.201.897-.988 1.542-1.907 1.563-.914.004-1.734-.59-1.975-1.478l-3.48-12.849c-.362-1.33-.655-2.301-.871-2.882-.163-.438-.475-.862-.924-1.258-.388-.341-.985-.514-1.776-.514s-1.401.171-1.814.507c-.463.377-.799.823-.997 1.326-.251.635-.54 1.578-.859 2.806l-3.446 12.839c-.235.875-1.028 1.481-1.932 1.481-.014 0-.027 0-.042 0-.92-.02-1.708-.664-1.909-1.563l-3.123-13.923c-.276-1.301-.589-2.274-.933-2.913-.074-.138-.303-.561-1.398-.561-.564 0-1 .168-1.37.529-.371.362-.536.761-.536 1.293 0 .37.074 1.103.427 2.483l5.106 20.653c.15.604.322 1.262.516 1.973.172.629.391 1.174.651 1.617.219.374.493.652.838.852.335.193.816.295 1.394.295.711 0 1.246-.159 1.635-.486.437-.367.743-.777.91-1.219.216-.568.521-1.552.905-2.924l4.043-14.809c.233-.866 1.023-1.47 1.925-1.47z" fill="#3762cc"/><path d="m203.629 149.793h-16.872c-1.744 0-3.168-.494-4.231-1.468-1.106-1.008-1.717-2.422-1.717-3.979 0-1.58.61-3.009 1.718-4.021 1.064-.974 2.487-1.467 4.23-1.467h11.468v-2.718h-9.879c-1.756 0-3.171-.502-4.206-1.491-1.042-.992-1.617-2.368-1.617-3.872 0-1.53.598-2.916 1.684-3.902 1.031-.94 2.425-1.418 4.14-1.418h9.879v-1.526h-10.987c-1.758 0-3.181-.486-4.229-1.444-1.094-.997-1.697-2.404-1.697-3.961 0-1.54.603-2.938 1.696-3.938 1.055-.96 2.477-1.444 4.23-1.444h16.392c1.31 0 2.458.222 3.412.659 1.208.551 2.146 1.479 2.712 2.687.458.976.681 2.106.681 3.459v23.04c0 2.15-.591 3.838-1.755 5.016-1.175 1.185-2.874 1.788-5.052 1.788zm-16.872-6.935c-.49 0-1.153.072-1.531.418-.28.257-.417.607-.417 1.07 0 .436.136.771.415 1.026.38.348 1.043.42 1.533.42h16.872c.734 0 1.714-.104 2.205-.602.496-.502.6-1.476.6-2.204v-23.04c0-.752-.099-1.327-.302-1.76 0 0 0-.001-.001-.002-.163-.349-.402-.586-.752-.745-.426-.195-1.03-.298-1.75-.298h-16.392c-.5 0-1.172.069-1.535.399-.166.151-.392.423-.392.983 0 .436.129.765.395 1.006.36.33 1.032.399 1.532.399h12.987c1.104 0 2 .896 2 2v5.526c0 1.104-.896 2-2 2h-11.879c-.472 0-1.106.065-1.447.376-.163.148-.376.404-.376.944 0 .415.124.735.379.979.333.318.969.385 1.444.385h11.879c1.104 0 2 .896 2 2v6.718c0 1.104-.896 2-2 2h-13.467z" fill="#3762cc"/><path d="m228.377 150.315c-1.838 0-3.55-.181-5.088-.537-1.625-.377-3.13-.977-4.473-1.782-1.352-.811-2.603-1.882-3.716-3.184-.983-1.17-1.82-2.473-2.496-3.886-.673-1.399-1.183-2.912-1.516-4.492-.327-1.543-.493-3.201-.493-4.925 0-2.811.424-5.39 1.261-7.664.858-2.334 2.116-4.371 3.74-6.055 1.627-1.686 3.559-2.986 5.741-3.866 2.148-.866 4.461-1.305 6.872-1.305 2.95 0 5.64.61 7.993 1.813 2.363 1.208 4.227 2.758 5.536 4.606 1.393 1.969 2.099 3.94 2.099 5.863 0 1.465-.535 2.819-1.547 3.916-1.06 1.148-2.489 1.781-4.024 1.781-1.971 0-3.182-.753-3.85-1.385-.654-.621-1.263-1.484-1.917-2.721-.573-1.078-1.215-1.866-1.903-2.341-.579-.397-1.368-.6-2.345-.6-1.634 0-2.784.54-3.73 1.752-1.083 1.389-1.633 3.546-1.633 6.413 0 1.968.258 3.575.767 4.78.425 1.004.994 1.737 1.69 2.181.732.466 1.64.702 2.697.702 1.168 0 2.05-.243 2.776-.765.73-.524 1.31-1.363 1.723-2.493.34-1.041.825-1.995 1.421-2.772.679-.883 1.968-1.936 4.262-1.936 1.523 0 2.905.562 3.996 1.625 1.113 1.082 1.701 2.49 1.701 4.071 0 1.377-.322 2.837-.959 4.339-.618 1.46-1.577 2.884-2.849 4.231-1.311 1.392-2.979 2.524-4.958 3.368-1.968.843-4.25 1.268-6.778 1.268zm-.167-33.695c-1.897 0-3.706.341-5.377 1.015-1.657.668-3.124 1.655-4.357 2.934-1.235 1.281-2.199 2.849-2.865 4.658-.673 1.831-1.015 3.945-1.015 6.283 0 1.445.137 2.824.407 4.098.267 1.27.674 2.477 1.208 3.59.532 1.111 1.185 2.13 1.94 3.028.821.96 1.741 1.752 2.723 2.34.984.592 2.101 1.034 3.318 1.316 1.242.288 2.65.434 4.185.434 1.986 0 3.74-.317 5.211-.944 1.469-.626 2.685-1.444 3.615-2.432.946-1.003 1.644-2.027 2.076-3.049.427-1.006.643-1.94.643-2.778 0-.503-.151-.875-.49-1.204-.001-.001-.002-.001-.002-.002-.348-.339-.72-.49-1.205-.49-.804 0-1.011.27-1.089.371-.314.411-.597.979-.813 1.646-.717 1.963-1.775 3.434-3.17 4.434-1.419 1.02-3.091 1.516-5.109 1.516-1.83 0-3.46-.446-4.844-1.327-1.395-.887-2.48-2.231-3.228-3.998-.719-1.7-1.083-3.833-1.083-6.338 0-3.78.834-6.766 2.479-8.874 1.705-2.184 4.021-3.291 6.884-3.291 1.8 0 3.352.438 4.61 1.304 1.225.843 2.291 2.108 3.171 3.762.541 1.022.916 1.484 1.135 1.692.252.237.736.288 1.099.288.423 0 .778-.161 1.085-.494.332-.359.486-.742.486-1.203 0-1.078-.459-2.273-1.363-3.552-.932-1.315-2.309-2.444-4.092-3.355-1.785-.915-3.862-1.378-6.173-1.378z" fill="#3762cc"/></svg>